<svg width="16" height="16" viewBox="0 0 16 16" fill="none" xmlns="http://www.w3.org/2000/svg">
<path fill-rule="evenodd" clip-rule="evenodd" d="M8.21253 0.370117C9.22205 0.406175 10.2676 0.406175 11.2772 0.442227C12.1785 0.47828 13.0078 0.622498 13.801 1.0912C14.8105 1.70412 15.4234 2.60548 15.6397 3.75921C15.7479 4.44424 15.7839 5.16532 15.82 5.85036C15.8561 7.36463 15.82 8.87891 15.82 10.3932C15.82 11.1864 15.7839 11.9796 15.5316 12.7367C15.0268 14.2149 13.9812 15.1163 12.4669 15.4047C11.7819 15.5489 11.0608 15.5489 10.3758 15.585C8.8615 15.621 7.38328 15.585 5.86899 15.585C5.07579 15.585 4.2826 15.5489 3.52546 15.2966C2.04722 14.7918 1.14586 13.7462 0.857428 12.2319C0.713213 11.5469 0.713213 10.8258 0.677158 10.1408C0.641101 8.62653 0.677158 7.11225 0.677158 5.59798C0.677158 4.80479 0.713213 4.01159 0.965593 3.25445C1.47036 1.77623 2.51593 0.874879 4.03021 0.586445C4.71525 0.442232 5.43634 0.442232 6.12137 0.406175C6.80641 0.370117 7.49144 0.370117 8.21253 0.370117ZM14.4512 7.83349C14.4152 7.83349 14.4512 7.83349 14.4512 7.83349C14.4152 7.22052 14.4152 6.64361 14.4152 6.03065C14.4152 5.45375 14.3791 4.87684 14.307 4.29994C14.1628 3.0019 13.4056 2.13654 12.1436 1.88415C11.4946 1.73992 10.7734 1.73992 10.1244 1.73992C8.82636 1.70387 7.56438 1.70387 6.26633 1.73992C5.61731 1.73992 4.96829 1.77597 4.35532 1.88415C3.27362 2.06443 2.51643 2.67739 2.19192 3.75909C2.08375 4.11965 2.04769 4.48022 2.01163 4.84079C1.97558 6.21094 1.97558 7.58109 1.97558 8.95124C1.97558 9.81659 2.01163 10.718 2.08375 11.5834C2.19192 12.8814 2.98517 13.7828 4.28321 13.9992C4.93223 14.1073 5.61731 14.1434 6.30239 14.1434C7.56438 14.1794 8.82636 14.1434 10.1244 14.1434C10.7013 14.1434 11.2782 14.1073 11.8551 14.0352C12.396 13.9992 12.9008 13.8189 13.3335 13.4583C14.0546 12.8814 14.307 12.1242 14.3431 11.2589C14.4152 10.1772 14.4152 9.02335 14.4512 7.83349Z" fill="#535353"/>
<path fill-rule="evenodd" clip-rule="evenodd" d="M12.1135 7.97418C12.1135 10.1392 10.3815 11.8712 8.21642 11.8712C6.05137 11.8712 4.31934 10.1392 4.31934 7.9381C4.31934 5.80916 6.08745 4.07715 8.25249 4.07715C10.3815 4.07715 12.1135 5.80916 12.1135 7.97418ZM8.21761 10.5009C9.58906 10.5009 10.744 9.346 10.744 7.97457C10.744 6.60313 9.58906 5.44823 8.21761 5.44823C6.81006 5.44823 5.69124 6.60313 5.69124 7.97457C5.65515 9.346 6.81006 10.5009 8.21761 10.5009Z" fill="#535353"/>
<path d="M13.1587 3.90128C13.1587 4.40668 12.7616 4.83988 12.2562 4.83988C11.7508 4.83988 11.3176 4.40668 11.3537 3.90128C11.3537 3.39588 11.7508 2.99878 12.2562 2.99878C12.7616 2.99878 13.1587 3.39588 13.1587 3.90128Z" fill="#535353"/>
</svg>
