<svg width="16" height="15" viewBox="0 0 16 15" fill="none" xmlns="http://www.w3.org/2000/svg">
<path fill-rule="evenodd" clip-rule="evenodd" d="M15.2817 9.2445V14.8485H12.0092V9.61265C12.0092 8.30368 11.5593 7.40377 10.373 7.40377C9.47309 7.40377 8.94132 8.01735 8.69588 8.59002C8.61407 8.79454 8.57317 9.08088 8.57317 9.36722V14.8485H5.30074C5.30074 14.8485 5.34165 5.97209 5.30074 5.07218H8.57317V6.46296C8.57317 6.46296 8.57317 6.50385 8.53226 6.50385H8.57317V6.46296C9.02313 5.80847 9.75943 4.82675 11.5184 4.82675C13.6454 4.82675 15.2817 6.25843 15.2817 9.2445ZM1.94967 0.369751C0.844321 0.369751 0.107422 1.10665 0.107422 2.04824C0.107422 2.98982 0.803384 3.72673 1.90873 3.72673H1.94967C3.09596 3.72673 3.79192 2.98983 3.79192 2.04824C3.75098 1.10665 3.05502 0.369751 1.94967 0.369751ZM0.271483 14.8472H3.50301V5.07089H0.271483V14.8472Z" fill="#535353"/>
</svg>
