<svg width="16" height="13" viewBox="0 0 16 13" fill="none" xmlns="http://www.w3.org/2000/svg">
<path fill-rule="evenodd" clip-rule="evenodd" d="M15.4112 2.08562C14.8399 2.33556 14.2686 2.51409 13.6259 2.5855C14.2686 2.19274 14.7685 1.58575 14.9828 0.871642C14.3758 1.2287 13.6974 1.47863 13.019 1.62145C12.4477 1.01446 11.6264 0.621704 10.7338 0.621704C9.01992 0.621704 7.6274 2.01421 7.6274 3.72807C7.6274 3.97802 7.6631 4.22795 7.69881 4.44219C5.0923 4.29936 2.80714 3.08537 1.27179 1.19299C0.986145 1.65716 0.843323 2.19274 0.843323 2.76403C0.843323 3.83519 1.37891 4.79924 2.23584 5.37052C1.73596 5.37052 1.23609 5.2277 0.807617 4.97776V5.01346C0.807617 6.5131 1.87879 7.79849 3.30702 8.08413C3.05707 8.15554 2.77143 8.19125 2.48578 8.19125C2.27155 8.19125 2.09302 8.15554 1.91449 8.11984C2.30725 9.36952 3.44984 10.2622 4.84235 10.2979C3.77119 11.1191 2.45008 11.619 0.986145 11.619C0.736207 11.619 0.486269 11.619 0.236328 11.5833C1.62885 12.4759 3.2356 12.9758 5.02088 12.9758C10.7695 12.9758 13.8759 8.22695 13.8759 4.12083C13.8759 3.97802 13.8759 3.83519 13.8759 3.72807C14.4829 3.26391 15.0185 2.69261 15.4112 2.08562Z" fill="white"/>
</svg>
